<svg xmlns:inkscape="http://www.inkscape.org/namespaces/inkscape" xmlns:sodipodi="http://sodipodi.sourceforge.net/DTD/sodipodi-0.dtd" xmlns="http://www.w3.org/2000/svg" xmlns:svg="http://www.w3.org/2000/svg" width="76.827126mm" height="81.520256mm" viewBox="0 0 76.827126 81.520256" version="1.1" id="svg5" xml:space="preserve" inkscape:export-filename="bitmap.svg" inkscape:export-xdpi="96" inkscape:export-ydpi="96"><sodipodi:namedview id="namedview7" pagecolor="#ffffff" bordercolor="#000000" borderopacity="0.25" inkscape:showpageshadow="2" inkscape:pageopacity="0.0" inkscape:pagecheckerboard="0" inkscape:deskcolor="#d1d1d1" inkscape:document-units="mm" showgrid="false"/><defs id="defs2"/><g id="g19" transform="matrix(0.35277776,0,0,0.35277778,-2.1166707,-2.1161303)"><text xml:space="preserve" transform="translate(99.141973,49.917634)" style="font-variant:normal;font-weight:normal;font-size:21.1873px;font-family:'DejaVu Sans';-inkscape-font-specification:DejaVuSans;writing-mode:lr-tb;fill:#000000;fill-opacity:1;fill-rule:nonzero;stroke:none" id="text23"><tspan x="0 13.475125" y="0" sodipodi:role="line" id="tspan21">12</tspan></text><text xml:space="preserve" transform="rotate(0.54405201,-5957.5448,6286.1987)" style="font-variant:normal;font-weight:normal;font-size:21.1873px;font-family:'DejaVu Sans';-inkscape-font-specification:DejaVuSans;writing-mode:lr-tb;fill:#000000;fill-opacity:1;fill-rule:nonzero;stroke:none" id="text27"><tspan x="0 13.475125" y="0" sodipodi:role="line" id="tspan25">11</tspan></text><text xml:space="preserve" transform="rotate(0.3806477,-13321.451,5006.5959)" style="font-variant:normal;font-weight:normal;font-size:21.1873px;font-family:'DejaVu Sans';-inkscape-font-specification:DejaVuSans;writing-mode:lr-tb;fill:#000000;fill-opacity:1;fill-rule:nonzero;stroke:none" id="text31"><tspan x="0 13.475125" y="0" sodipodi:role="line" id="tspan29">10</tspan></text><text xml:space="preserve" transform="rotate(-0.05566052,130059.6,-32144.127)" style="font-variant:normal;font-weight:normal;font-size:21.1873px;font-family:'DejaVu Sans';-inkscape-font-specification:DejaVuSans;writing-mode:lr-tb;fill:#000000;fill-opacity:1;fill-rule:nonzero;stroke:none" id="text35"><tspan x="0" y="0" id="tspan33">9</tspan></text><text xml:space="preserve" transform="rotate(-0.33203245,28936.675,-6917.798)" style="font-variant:normal;font-weight:normal;font-size:21.1873px;font-family:'DejaVu Sans';-inkscape-font-specification:DejaVuSans;writing-mode:lr-tb;fill:#000000;fill-opacity:1;fill-rule:nonzero;stroke:none" id="text39"><tspan x="0" y="0" id="tspan37">8</tspan></text><text xml:space="preserve" transform="rotate(1.7956756,-6328.7131,2220.0621)" style="font-variant:normal;font-weight:normal;font-size:21.1873px;font-family:'DejaVu Sans';-inkscape-font-specification:DejaVuSans;writing-mode:lr-tb;fill:#000000;fill-opacity:1;fill-rule:nonzero;stroke:none" id="text43"><tspan x="0" y="0" id="tspan41">7</tspan></text><text xml:space="preserve" transform="rotate(-1.8601427,6469.342,-3169.207)" style="font-variant:normal;font-weight:normal;font-size:21.1873px;font-family:'DejaVu Sans';-inkscape-font-specification:DejaVuSans;writing-mode:lr-tb;fill:#000000;fill-opacity:1;fill-rule:nonzero;stroke:none" id="text47"><tspan x="0" y="0" id="tspan45">6</tspan></text><text xml:space="preserve" transform="rotate(-1.6235356,7006.9143,-5041.9202)" style="font-variant:normal;font-weight:normal;font-size:21.1873px;font-family:'DejaVu Sans';-inkscape-font-specification:DejaVuSans;writing-mode:lr-tb;fill:#000000;fill-opacity:1;fill-rule:nonzero;stroke:none" id="text51"><tspan x="0" y="0" id="tspan49">5</tspan></text><text xml:space="preserve" transform="rotate(3.0528721,-3070.9601,3366.8724)" style="font-variant:normal;font-weight:normal;font-size:21.1873px;font-family:'DejaVu Sans';-inkscape-font-specification:DejaVuSans;writing-mode:lr-tb;fill:#000000;fill-opacity:1;fill-rule:nonzero;stroke:none" id="text55"><tspan x="0" y="0" id="tspan53">4</tspan></text><text xml:space="preserve" transform="rotate(-0.43079389,17290.126,-24821.465)" style="font-variant:normal;font-weight:normal;font-size:21.1873px;font-family:'DejaVu Sans';-inkscape-font-specification:DejaVuSans;writing-mode:lr-tb;fill:#000000;fill-opacity:1;fill-rule:nonzero;stroke:none" id="text59"><tspan x="0" y="0" id="tspan57">3</tspan></text><text xml:space="preserve" transform="rotate(-1.4740387,3561.1568,-6800.6539)" style="font-variant:normal;font-weight:normal;font-size:21.1873px;font-family:'DejaVu Sans';-inkscape-font-specification:DejaVuSans;writing-mode:lr-tb;fill:#000000;fill-opacity:1;fill-rule:nonzero;stroke:none" id="text63"><tspan x="0" y="0" id="tspan61">2</tspan></text><text xml:space="preserve" transform="rotate(2.4812764,-1345.6123,3351.3793)" style="font-variant:normal;font-weight:normal;font-size:21.1873px;font-family:'DejaVu Sans';-inkscape-font-specification:DejaVuSans;writing-mode:lr-tb;fill:#000000;fill-opacity:1;fill-rule:nonzero;stroke:none" id="text67"><tspan x="0" y="0" id="tspan65">1</tspan></text><g id="g69"><path d="M 100.828,61.051 C 98.031,51.07 94.656,38.848 94.445,28.172 c -0.062,-3.078 5.453,-2.93 8.539,-3.547 3.93,-0.789 6.274,-0.457 9.414,-0.418 3.418,0.047 6.918,-0.121 10.231,0.719 3.34,0.844 10.012,1.035 9.406,4.265 -2.105,11.231 -3.926,23.063 -7.34,32.032 -0.804,2.113 -2.781,1.168 -5.242,1.132 -1.562,-0.023 -5.512,-0.195 -8.269,-0.23 -1.766,-0.027 -3.543,0.184 -5.297,0 -1.715,-0.18 -4.496,0.949 -5.059,-1.074 z" style="fill:none;stroke:#000000;stroke-width:1.88504;stroke-linecap:butt;stroke-linejoin:miter;stroke-miterlimit:4;stroke-dasharray:none;stroke-opacity:1" id="path71"/></g><g id="g73"><path d="m 100.828,181.652 c -2.797,9.981 -6.172,22.203 -6.383,32.879 -0.062,3.078 5.453,2.93 8.539,3.547 3.93,0.789 6.274,0.457 9.414,0.418 3.418,-0.047 6.918,0.121 10.231,-0.715 3.34,-0.847 10.012,-1.039 9.406,-4.269 -2.105,-11.231 -3.926,-23.063 -7.34,-32.032 -0.804,-2.113 -2.781,-1.168 -5.242,-1.132 -1.562,0.023 -5.512,0.195 -8.269,0.23 -1.766,0.027 -3.543,-0.183 -5.297,0 -1.715,0.18 -4.496,-0.949 -5.059,1.074 z" style="fill:none;stroke:#000000;stroke-width:1.88504;stroke-linecap:butt;stroke-linejoin:miter;stroke-miterlimit:4;stroke-dasharray:none;stroke-opacity:1" id="path75"/></g><g id="g77"><path d="m 98.098,6.941 h 29.91 c 2.144,0 3.871,1.727 3.871,3.871 v 3.954 c 0,2.148 -1.727,3.875 -3.871,3.875 h -29.91 c -2.145,0 -3.871,-1.727 -3.871,-3.875 v -3.954 c 0,-2.144 1.726,-3.871 3.871,-3.871 z" style="fill:none;stroke:#000000;stroke-width:1.88504;stroke-linecap:butt;stroke-linejoin:miter;stroke-miterlimit:4;stroke-dasharray:none;stroke-opacity:1" id="path79"/></g><g id="g81"><path d="m 98.098,224.441 h 29.91 c 2.144,0 3.871,1.727 3.871,3.871 v 3.954 c 0,2.144 -1.727,3.871 -3.871,3.871 h -29.91 c -2.145,0 -3.871,-1.727 -3.871,-3.871 v -3.954 c 0,-2.144 1.726,-3.871 3.871,-3.871 z" style="fill:none;stroke:#000000;stroke-width:1.88504;stroke-linecap:butt;stroke-linejoin:miter;stroke-miterlimit:4;stroke-dasharray:none;stroke-opacity:1" id="path83"/></g><g id="g85"><path d="m 132.188,64.035 c 2.453,-10.07 5.5,-22.379 10.546,-31.789 1.454,-2.711 6.188,0.117 9.18,1.09 3.813,1.238 5.691,2.676 8.41,4.25 2.961,1.715 6.094,3.281 8.571,5.637 2.496,2.371 8.218,5.808 6.105,8.328 -7.336,8.758 -14.723,18.183 -22.09,24.328 -1.734,1.445 -2.996,-0.344 -5.125,-1.582 -1.351,-0.785 -4.711,-2.867 -7.094,-4.254 -1.527,-0.887 -3.179,-1.57 -4.621,-2.594 -1.406,-0.996 -4.382,-1.375 -3.882,-3.414 z" style="fill:none;stroke:#000000;stroke-width:1.88504;stroke-linecap:butt;stroke-linejoin:miter;stroke-miterlimit:4;stroke-dasharray:none;stroke-opacity:1" id="path87"/></g><g id="g89"><path d="m 173.879,108.781 c 9.98,-2.797 22.203,-6.168 32.883,-6.383 3.074,-0.058 2.926,5.457 3.543,8.54 0.789,3.929 0.457,6.273 0.418,9.417 -0.043,3.418 0.125,6.915 -0.715,10.231 -0.844,3.336 -1.035,10.008 -4.27,9.402 -11.226,-2.105 -23.062,-3.926 -32.031,-7.34 -2.109,-0.804 -1.168,-2.777 -1.129,-5.242 0.024,-1.562 0.192,-5.511 0.231,-8.265 0.023,-1.77 -0.188,-3.543 -0.004,-5.301 0.179,-1.715 -0.946,-4.492 1.074,-5.059 z" style="fill:none;stroke:#000000;stroke-width:1.88504;stroke-linecap:butt;stroke-linejoin:miter;stroke-miterlimit:4;stroke-dasharray:none;stroke-opacity:1" id="path91"/></g><g id="g93"><path d="m 57.777,107.277 c -9.98,-2.793 -22.203,-6.164 -32.882,-6.375 -3.075,-0.062 -2.926,5.453 -3.543,8.539 -0.79,3.93 -0.457,6.274 -0.414,9.414 0.042,3.418 -0.126,6.918 0.714,10.231 0.848,3.34 1.039,10.012 4.27,9.406 11.23,-2.109 23.062,-3.93 32.031,-7.344 2.109,-0.804 1.168,-2.781 1.129,-5.242 -0.023,-1.566 -0.191,-5.511 -0.23,-8.269 -0.028,-1.766 0.183,-3.543 0,-5.301 -0.18,-1.711 0.949,-4.492 -1.075,-5.059 z" style="fill:none;stroke:#000000;stroke-width:1.88504;stroke-linecap:butt;stroke-linejoin:miter;stroke-miterlimit:4;stroke-dasharray:none;stroke-opacity:1" id="path95"/></g><g id="g97"><path d="m 159.039,83.172 c 6.75,-7.867 15.039,-17.461 23.805,-23.567 2.523,-1.757 5.461,2.911 7.687,5.133 2.84,2.828 3.864,4.965 5.574,7.598 1.864,2.867 3.946,5.684 5.09,8.906 1.149,3.246 4.696,8.899 1.672,10.192 -10.508,4.484 -21.363,9.543 -30.715,11.683 -2.203,0.504 -2.515,-1.664 -3.851,-3.73 -0.848,-1.313 -2.903,-4.692 -4.399,-7.004 -0.961,-1.485 -2.125,-2.844 -2.945,-4.406 -0.805,-1.528 -3.285,-3.211 -1.918,-4.805 z" style="fill:none;stroke:#000000;stroke-width:1.88504;stroke-linecap:butt;stroke-linejoin:miter;stroke-miterlimit:4;stroke-dasharray:none;stroke-opacity:1" id="path99"/></g><g id="g101"><path d="m 172.98,140.27 c 9.868,3.175 21.922,7.105 30.946,12.82 2.597,1.644 -0.567,6.164 -1.754,9.074 -1.512,3.715 -3.078,5.484 -4.848,8.086 -1.922,2.824 -3.711,5.836 -6.238,8.137 -2.547,2.316 -6.387,7.777 -8.75,5.488 -8.203,-7.949 -17.07,-15.996 -22.664,-23.789 -1.32,-1.84 0.555,-2.965 1.945,-5 0.883,-1.289 3.203,-4.488 4.754,-6.766 0.996,-1.461 1.801,-3.058 2.922,-4.422 1.098,-1.332 1.687,-4.269 3.687,-3.628 z" style="fill:none;stroke:#000000;stroke-width:1.88504;stroke-linecap:butt;stroke-linejoin:miter;stroke-miterlimit:4;stroke-dasharray:none;stroke-opacity:1" id="path103"/></g><g id="g105"><path d="m 152.488,166.789 c 7.68,6.965 17.039,15.52 22.903,24.445 1.687,2.571 -3.063,5.383 -5.344,7.547 -2.91,2.758 -5.07,3.723 -7.75,5.364 -2.918,1.781 -5.793,3.785 -9.043,4.835 -3.277,1.063 -9.027,4.45 -10.234,1.391 -4.192,-10.629 -8.95,-21.617 -10.829,-31.023 -0.445,-2.219 1.731,-2.473 3.836,-3.75 1.336,-0.813 4.77,-2.77 7.121,-4.203 1.512,-0.918 2.903,-2.043 4.489,-2.821 1.547,-0.762 3.297,-3.195 4.851,-1.785 z" style="fill:none;stroke:#000000;stroke-width:1.88504;stroke-linecap:butt;stroke-linejoin:miter;stroke-miterlimit:4;stroke-dasharray:none;stroke-opacity:1" id="path107"/></g><g id="g109" transform="matrix(0.716544,-1,1,0.716544,0,0)"><path d="m -31.542,217.785 h 24.313 c 1.743,0.001 3.146,1.402 3.149,3.146 l -0.001,3.216 c -10e-4,1.743 -1.404,3.147 -3.147,3.146 l -24.313,-0.001 c -1.743,-0.001 -3.148,-1.405 -3.147,-3.148 l -10e-4,-3.213 c 10e-4,-1.743 1.404,-3.148 3.147,-3.146 z" style="fill:none;stroke:#000000;stroke-width:1.53228;stroke-linecap:butt;stroke-linejoin:miter;stroke-miterlimit:4;stroke-dasharray:none;stroke-opacity:1" id="path111"/></g><g id="g113"><path d="m 73.625,166.664 c -7.805,6.824 -17.316,15.207 -23.34,24.027 -1.734,2.539 2.961,5.434 5.203,7.641 2.86,2.809 5,3.816 7.653,5.5 2.886,1.836 5.722,3.891 8.953,5.004 3.258,1.117 8.945,4.609 10.207,1.574 4.387,-10.551 9.34,-21.453 11.39,-30.824 0.485,-2.207 -1.687,-2.5 -3.765,-3.816 -1.324,-0.836 -4.719,-2.856 -7.047,-4.332 -1.492,-0.946 -2.863,-2.094 -4.434,-2.903 -1.535,-0.789 -3.242,-3.254 -4.82,-1.871 z" style="fill:none;stroke:#000000;stroke-width:1.88504;stroke-linecap:butt;stroke-linejoin:miter;stroke-miterlimit:4;stroke-dasharray:none;stroke-opacity:1" id="path115"/></g><g id="g117"><path d="m 57.992,139.598 c -10.031,2.621 -22.285,5.875 -31.613,11.078 -2.684,1.5 0.226,6.187 1.25,9.16 1.301,3.793 2.769,5.648 4.391,8.34 1.761,2.929 3.382,6.035 5.777,8.472 2.414,2.457 5.945,8.122 8.43,5.969 8.632,-7.484 17.933,-15.027 23.953,-22.5 1.418,-1.758 -0.395,-2.988 -1.668,-5.097 -0.809,-1.336 -2.946,-4.661 -4.371,-7.02 -0.914,-1.512 -1.625,-3.152 -2.672,-4.578 -1.02,-1.391 -1.449,-4.356 -3.477,-3.824 z" style="fill:none;stroke:#000000;stroke-width:1.88504;stroke-linecap:butt;stroke-linejoin:miter;stroke-miterlimit:4;stroke-dasharray:none;stroke-opacity:1" id="path119"/></g><g id="g121" transform="matrix(0.667005,1,-1,0.667005,0,0)"><path d="m 118.402,61.276 24.883,-0.001 c 1.786,0 3.221,1.438 3.221,3.219 l 0.001,3.289 c 0,1.786 -1.437,3.221 -3.223,3.222 h -24.883 c -1.781,0 -3.218,-1.435 -3.219,-3.221 l -0.001,-3.29 c 0.002,-1.783 1.438,-3.221 3.221,-3.218 z" style="fill:none;stroke:#000000;stroke-width:1.5682;stroke-linecap:butt;stroke-linejoin:miter;stroke-miterlimit:4;stroke-dasharray:none;stroke-opacity:1" id="path123"/></g><g id="g125"><path d="M 69.062,79.473 C 61.656,72.223 52.559,63.391 43.297,58.07 c -2.668,-1.531 -5.188,3.375 -7.211,5.785 -2.582,3.067 -3.418,5.282 -4.895,8.055 -1.601,3.02 -3.429,6.008 -4.289,9.317 -0.863,3.332 -3.902,9.273 -0.777,10.296 10.859,3.551 22.113,7.645 31.617,8.961 2.238,0.309 2.36,-1.875 3.512,-4.054 0.73,-1.379 2.48,-4.926 3.769,-7.36 0.829,-1.562 1.868,-3.019 2.551,-4.648 0.668,-1.586 2.992,-3.481 1.488,-4.949 z" style="fill:none;stroke:#000000;stroke-width:1.88504;stroke-linecap:butt;stroke-linejoin:miter;stroke-miterlimit:4;stroke-dasharray:none;stroke-opacity:1" id="path127"/></g><g id="g129" transform="matrix(-0.57837,1,-1,-0.57837,0,0)"><path d="m 28.689,-49.152 25.89,-10e-4 c 1.856,10e-4 3.35,1.496 3.352,3.351 l -10e-4,3.422 c 10e-4,1.859 -1.494,3.353 -3.35,3.352 l -25.893,0.003 c -1.856,-0.001 -3.35,-1.496 -3.351,-3.355 l -0.002,-3.421 c 0.001,-1.856 1.496,-3.35 3.355,-3.351 z" style="fill:none;stroke:#000000;stroke-width:1.63177;stroke-linecap:butt;stroke-linejoin:miter;stroke-miterlimit:4;stroke-dasharray:none;stroke-opacity:1" id="path131"/></g><g id="g133"><path d="m 93.441,61.461 c -2.718,-10.004 -6.089,-22.227 -11.382,-31.5 -1.524,-2.672 -6.184,0.281 -9.149,1.332 -3.777,1.34 -5.621,2.824 -8.297,4.473 -2.914,1.789 -6.004,3.441 -8.418,5.859 -2.429,2.437 -8.062,6.02 -5.883,8.484 7.563,8.563 15.196,17.789 22.723,23.739 1.774,1.398 2.988,-0.422 5.082,-1.719 1.332,-0.82 4.633,-2.988 6.981,-4.438 1.504,-0.925 3.136,-1.656 4.55,-2.714 1.379,-1.032 4.344,-1.489 3.793,-3.516 z" style="fill:none;stroke:#000000;stroke-width:1.88504;stroke-linecap:butt;stroke-linejoin:miter;stroke-miterlimit:4;stroke-dasharray:none;stroke-opacity:1" id="path135"/></g></g></svg>