<svg xmlns:inkscape="http://www.inkscape.org/namespaces/inkscape" xmlns:sodipodi="http://sodipodi.sourceforge.net/DTD/sodipodi-0.dtd" xmlns="http://www.w3.org/2000/svg" xmlns:svg="http://www.w3.org/2000/svg" width="76.827126mm" height="82.930771mm" viewBox="0 0 76.827126 82.930771" version="1.1" id="svg5" xml:space="preserve" inkscape:export-filename="bitmap.svg" inkscape:export-xdpi="96" inkscape:export-ydpi="96"><sodipodi:namedview id="namedview7" pagecolor="#ffffff" bordercolor="#000000" borderopacity="0.25" inkscape:showpageshadow="2" inkscape:pageopacity="0.0" inkscape:pagecheckerboard="0" inkscape:deskcolor="#d1d1d1" inkscape:document-units="mm" showgrid="false"/><defs id="defs2"/><g id="g758" transform="matrix(0.35277776,0,0,0.35277778,0.79601529,1.3541687)"><path d="m 89.707,13.496 c 6.363,0.777 13.398,-0.894 19.887,-0.621 2.953,0.121 6.996,1.41 9.84,0.465 5.043,-1.68 3.617,-9.926 -0.875,-11.231 -7.516,-2.187 -23.25,-3.425 -30.414,0.129 -4.36,2.16 -3.457,10.645 1.562,11.258 M 120.754,5.09 c -0.352,1.832 -0.34,4.687 -2.289,5.617 -5,2.375 -16.563,-0.395 -22.363,0.027 -1.965,0.145 -5.094,0.973 -6.821,-0.308 -7.386,-5.5 7.469,-7.145 10.02,-7.215 2.883,-0.078 5.773,-0.106 8.648,0.047 4.34,0.226 8.629,0.586 12.805,1.832 z" style="fill:#6c6c6c;fill-opacity:1;fill-rule:nonzero;stroke:none" id="path760"/><path d="m 85.383,21.473 c -2.965,6.691 1.769,19.683 2.929,26.703 0.477,2.863 0.993,5.953 3.465,7.836 5.055,3.855 22.93,4.183 26.004,-2.254 3.258,-6.817 4.582,-15.418 6.543,-22.715 0.805,-2.996 1.887,-6.625 -0.398,-9.273 -5.242,-6.079 -21.965,-4.672 -29.188,-4.254 -3.39,0.195 -7.754,0.351 -9.355,3.957 m 2.453,0.586 c 1.613,-2.301 5.277,-2.2 7.762,-2.325 6.144,-0.304 22.043,-1.754 26.41,3.602 1.633,2 0.629,5.105 0.062,7.316 -1.672,6.516 -2.843,17.965 -7.117,23.211 -2.586,3.176 -7.976,1.575 -11.465,1.414 -3.058,-0.14 -7.929,0.821 -10.437,-1.375 -4.707,-4.125 -4.5,-18.597 -5.481,-24.543 -0.379,-2.293 -1.195,-5.211 0.266,-7.3" style="fill:#6c6c6c;fill-opacity:1;fill-rule:nonzero;stroke:none" id="path762"/><path d="m 133.863,25.648 c -6.054,4.114 -8.894,17.649 -11.617,24.223 -1.109,2.68 -2.301,5.578 -1.199,8.481 2.258,5.941 17.262,15.664 23.273,11.824 6.364,-4.071 12.035,-10.676 17.551,-15.836 2.266,-2.117 5.102,-4.629 4.563,-8.086 -1.243,-7.926 -16.184,-15.566 -22.536,-19.027 -2.984,-1.625 -6.773,-3.797 -10.035,-1.579 m 1.774,1.793 c 2.582,-1.101 5.64,0.918 7.816,2.125 5.379,2.989 19.645,10.153 20.524,17.008 0.328,2.563 -2.161,4.668 -3.813,6.246 -4.859,4.649 -11.902,13.75 -18.301,15.95 -3.875,1.332 -7.605,-2.879 -10.484,-4.856 -2.524,-1.734 -7.168,-3.492 -8.133,-6.68 -1.82,-5.988 6,-18.172 8.305,-23.734 0.89,-2.148 1.742,-5.059 4.086,-6.059" style="fill:#6c6c6c;fill-opacity:1;fill-rule:nonzero;stroke:none" id="path764"/><path d="m 173.797,52.223 c -7.121,1.691 -14.586,13.332 -19.469,18.507 -1.992,2.114 -4.133,4.395 -4.137,7.504 0,6.356 10.563,20.778 17.547,19.325 7.399,-1.539 15.047,-5.7 22.035,-8.559 2.872,-1.176 6.415,-2.516 7.141,-5.938 1.656,-7.847 -9.594,-20.304 -14.301,-25.796 -2.207,-2.578 -4.976,-5.957 -8.816,-5.043 m 1.019,2.304 c 2.809,-0.109 4.95,2.864 6.551,4.766 3.965,4.707 14.754,16.477 13.137,23.195 -0.602,2.512 -3.68,3.594 -5.785,4.485 -6.192,2.613 -16.012,8.621 -22.778,8.398 -4.089,-0.133 -6.082,-5.394 -8.07,-8.266 -1.742,-2.515 -5.457,-5.812 -5.23,-9.132 0.433,-6.246 12.07,-14.852 16.207,-19.235 1.593,-1.691 3.422,-4.109 5.968,-4.211" style="fill:#6c6c6c;fill-opacity:1;fill-rule:nonzero;stroke:none" id="path766"/><path d="m 198.469,95.785 c -6.887,-2.473 -19.5,3.195 -26.418,4.86 -2.821,0.683 -5.863,1.421 -7.563,4.023 -3.476,5.32 -2.511,23.172 4.133,25.773 7.031,2.754 15.711,3.45 23.129,4.875 3.047,0.586 6.746,1.403 9.223,-1.07 5.675,-5.664 3.062,-22.246 2.125,-29.414 -0.442,-3.371 -0.914,-7.711 -4.629,-9.047 m -0.407,2.488 c 2.415,1.442 2.579,5.106 2.883,7.575 0.75,6.105 3.348,21.859 -1.675,26.601 -1.879,1.774 -5.047,1 -7.293,0.594 -6.618,-1.195 -18.125,-1.535 -23.668,-5.414 -3.352,-2.348 -2.149,-7.844 -2.243,-11.332 -0.082,-3.063 -1.394,-7.852 0.618,-10.508 3.773,-4.996 18.222,-5.844 24.078,-7.25 2.261,-0.547 5.113,-1.57 7.3,-0.266" style="fill:#6c6c6c;fill-opacity:1;fill-rule:nonzero;stroke:none" id="path768"/><path d="m 196.672,147.023 c -3.879,-6.207 -17.293,-9.566 -23.758,-12.539 -2.637,-1.211 -5.484,-2.511 -8.43,-1.523 -6.023,2.027 -16.316,16.644 -12.707,22.801 3.821,6.515 10.203,12.437 15.145,18.148 2.031,2.344 4.43,5.278 7.906,4.867 7.969,-0.933 16.18,-15.574 19.879,-21.785 1.738,-2.918 4.055,-6.621 1.965,-9.969 m -1.86,1.704 c 1,2.625 -1.132,5.605 -2.425,7.73 -3.192,5.262 -10.903,19.242 -17.782,19.855 -2.574,0.231 -4.585,-2.339 -6.097,-4.05 -4.457,-5.035 -13.281,-12.422 -15.235,-18.903 -1.179,-3.918 3.168,-7.488 5.254,-10.285 1.832,-2.457 3.766,-7.031 6.989,-7.875 6.054,-1.586 17.929,6.696 23.398,9.215 2.113,0.973 4.988,1.934 5.898,4.313" style="fill:#6c6c6c;fill-opacity:1;fill-rule:nonzero;stroke:none" id="path770"/><path d="m 168,183.812 c -1.418,-7.179 -12.762,-15.089 -17.746,-20.164 -2.035,-2.07 -4.234,-4.3 -7.336,-4.421 -6.352,-0.247 -21.172,9.753 -19.984,16.793 1.25,7.449 5.113,15.25 7.703,22.347 1.062,2.91 2.265,6.504 5.656,7.36 7.781,1.957 20.66,-8.805 26.328,-13.297 2.664,-2.11 6.145,-4.746 5.379,-8.618 m -2.344,0.93 c 0.004,2.809 -3.051,4.836 -5.011,6.363 -4.856,3.782 -17.032,14.11 -23.684,12.235 -2.484,-0.699 -3.449,-3.813 -4.258,-5.949 -2.375,-6.293 -7.996,-16.336 -7.515,-23.086 0.289,-4.082 5.621,-5.871 8.566,-7.746 2.582,-1.645 6.019,-5.231 9.332,-4.875 6.223,0.671 14.375,12.632 18.594,16.929 1.629,1.664 3.972,3.582 3.976,6.129" style="fill:#6c6c6c;fill-opacity:1;fill-rule:nonzero;stroke:none" id="path772"/><path d="m 124.102,208.887 c 2.738,-6.785 -2.442,-19.61 -3.84,-26.586 -0.571,-2.844 -1.196,-5.914 -3.727,-7.711 -5.187,-3.68 -23.062,-3.402 -25.914,3.137 -3.023,6.925 -4.055,15.57 -5.762,22.925 -0.703,3.02 -1.66,6.688 0.715,9.258 5.446,5.891 22.11,3.918 29.313,3.254 3.383,-0.312 7.738,-0.617 9.215,-4.277 m -2.473,-0.5 c -1.531,2.351 -5.195,2.379 -7.676,2.586 -6.129,0.515 -21.973,2.507 -26.515,-2.696 -1.704,-1.945 -0.805,-5.082 -0.313,-7.312 1.449,-6.567 2.227,-18.051 6.316,-23.438 2.477,-3.261 7.922,-1.847 11.411,-1.804 3.062,0.035 7.902,-1.094 10.48,1.015 4.844,3.965 5.133,18.434 6.316,24.34 0.457,2.281 1.372,5.172 -0.015,7.309" style="fill:#6c6c6c;fill-opacity:1;fill-rule:nonzero;stroke:none" id="path774"/><path d="m 72.965,206.004 c 6.328,-3.68 10.117,-16.981 13.293,-23.344 1.297,-2.598 2.687,-5.402 1.793,-8.379 -1.832,-6.086 -16.113,-16.84 -22.383,-13.429 -6.637,3.609 -12.754,9.8 -18.621,14.558 -2.41,1.953 -5.414,4.258 -5.121,7.742 0.679,7.996 15.051,16.672 21.14,20.571 2.864,1.828 6.489,4.261 9.899,2.281 m -1.641,-1.914 c -2.656,0.918 -5.566,-1.313 -7.648,-2.672 -5.156,-3.359 -18.883,-11.512 -19.278,-18.406 -0.148,-2.582 2.485,-4.508 4.243,-5.965 5.175,-4.293 12.843,-12.879 19.379,-14.621 3.957,-1.055 7.386,3.406 10.117,5.578 2.394,1.91 6.902,3.988 7.644,7.238 1.391,6.102 -7.265,17.703 -9.957,23.09 -1.039,2.082 -2.09,4.926 -4.5,5.758" style="fill:#6c6c6c;fill-opacity:1;fill-rule:nonzero;stroke:none" id="path776"/><path d="m 37.113,176.168 c 7.223,-1.184 15.489,-12.27 20.723,-17.09 2.137,-1.969 4.434,-4.094 4.652,-7.191 0.453,-6.344 -9.07,-21.473 -16.14,-20.512 -7.489,1.012 -15.41,4.625 -22.586,6.984 -2.946,0.969 -6.574,2.055 -7.535,5.418 -2.207,7.715 8.136,20.93 12.445,26.739 2.023,2.73 4.547,6.293 8.441,5.652 m -0.855,-2.371 c -2.809,-0.086 -4.735,-3.203 -6.199,-5.215 -3.625,-4.973 -13.555,-17.473 -11.473,-24.059 0.781,-2.464 3.926,-3.328 6.086,-4.066 6.363,-2.172 16.582,-7.473 23.312,-6.777 4.075,0.422 5.692,5.808 7.469,8.812 1.563,2.637 5.035,6.184 4.574,9.481 -0.867,6.199 -13.082,13.965 -17.515,18.047 -1.715,1.574 -3.707,3.855 -6.254,3.777" style="fill:#6c6c6c;fill-opacity:1;fill-rule:nonzero;stroke:none" id="path778"/><path d="m 13.457,131.492 c 6.695,2.953 19.68,-1.812 26.695,-2.988 2.864,-0.481 5.95,-1.004 7.828,-3.481 3.84,-5.062 4.137,-22.937 -2.308,-26 -6.824,-3.242 -15.434,-4.546 -22.731,-6.492 -2.996,-0.797 -6.629,-1.871 -9.273,0.418 -6.066,5.254 -4.625,21.977 -4.191,29.196 0.203,3.39 0.367,7.753 3.98,9.347 m 0.578,-2.453 c -2.305,-1.609 -2.211,-5.273 -2.34,-7.758 -0.316,-6.144 -1.8,-22.039 3.543,-26.418 2,-1.636 5.106,-0.64 7.317,-0.078 6.519,1.656 17.972,2.805 23.226,7.067 3.18,2.578 1.59,7.972 1.442,11.46 -0.133,3.059 0.836,7.93 -1.356,10.442 -4.113,4.715 -18.586,4.543 -24.531,5.535 -2.293,0.383 -5.211,1.207 -7.301,-0.25" style="fill:#6c6c6c;fill-opacity:1;fill-rule:nonzero;stroke:none" id="path780"/><path d="m 16.09,86.125 c 4.848,5.484 18.633,6.586 25.496,8.453 2.801,0.762 5.824,1.578 8.566,0.117 5.61,-2.992 13.352,-19.105 8.782,-24.582 -4.84,-5.801 -12.114,-10.586 -17.93,-15.406 -2.387,-1.98 -5.238,-4.473 -8.598,-3.5 -7.707,2.234 -13.394,18.023 -16.019,24.762 -1.235,3.164 -2.91,7.199 -0.297,10.156 m 1.555,-1.988 c -1.422,-2.422 0.195,-5.711 1.117,-8.02 2.281,-5.715 7.586,-20.777 14.269,-22.515 2.5,-0.649 4.907,1.554 6.68,2.992 5.227,4.23 15.148,10.062 18.141,16.133 1.808,3.675 -1.891,7.91 -3.489,11.015 -1.402,2.723 -2.558,7.551 -5.597,8.914 -5.711,2.563 -18.786,-3.652 -24.598,-5.234 -2.242,-0.613 -5.234,-1.086 -6.523,-3.285" style="fill:#6c6c6c;fill-opacity:1;fill-rule:nonzero;stroke:none" id="path782"/><path d="m 41.34,42.324 c 1.058,7.242 12,15.699 16.73,21.016 1.926,2.168 4.016,4.504 7.11,4.777 6.332,0.563 21.625,-8.699 20.789,-15.785 -0.887,-7.5 -4.36,-15.484 -6.594,-22.699 -0.918,-2.961 -1.941,-6.61 -5.289,-7.629 -7.672,-2.344 -21.066,7.773 -26.949,11.98 -2.766,1.973 -6.371,4.438 -5.797,8.34 m 2.383,-0.812 c 0.136,-2.805 3.289,-4.68 5.324,-6.11 5.035,-3.535 17.703,-13.25 24.254,-11.05 2.449,0.82 3.261,3.98 3.961,6.152 2.062,6.402 7.183,16.711 6.371,23.426 -0.492,4.066 -5.906,5.59 -8.942,7.316 -2.66,1.516 -6.269,4.93 -9.558,4.41 C 58.949,64.68 51.398,52.332 47.395,47.828 45.848,46.09 43.602,44.059 43.723,41.512" style="fill:#6c6c6c;fill-opacity:1;fill-rule:nonzero;stroke:none" id="path784"/><path d="m 202.836,154.207 c -4.246,4.805 -6.859,11.547 -10.758,16.738 -1.773,2.364 -5.125,4.965 -5.957,7.844 -1.476,5.106 6.129,8.602 9.75,5.641 6.059,-4.95 15.996,-17.215 17.129,-25.133 0.688,-4.817 -6.816,-8.879 -10.168,-5.09 m -10.66,30.344 c -1.313,-1.324 -3.676,-2.934 -3.332,-5.067 0.875,-5.464 9.707,-13.425 12.644,-18.441 0.996,-1.703 2.086,-4.754 4.121,-5.445 8.715,-2.973 1.657,10.199 0.266,12.343 -1.566,2.418 -3.183,4.813 -4.937,7.102 -2.645,3.441 -5.375,6.773 -8.762,9.508 z" style="fill:#6c6c6c;fill-opacity:1;fill-rule:nonzero;stroke:none" id="path786"/><path d="m 119.355,217.453 c -6.378,-0.629 -13.375,1.207 -19.863,1.09 -2.953,-0.055 -7.027,-1.246 -9.847,-0.234 -5.004,1.796 -3.383,10.003 1.14,11.207 7.563,2.007 23.32,2.875 30.403,-0.848 4.304,-2.262 3.203,-10.723 -1.833,-11.219 m -30.835,9.137 c 0.304,-1.84 0.226,-4.695 2.152,-5.668 4.941,-2.492 16.566,0 22.355,-0.559 1.965,-0.187 5.075,-1.093 6.828,0.149 7.516,5.324 -7.296,7.32 -9.847,7.449 -2.879,0.148 -5.766,0.242 -8.649,0.16 -4.339,-0.125 -8.64,-0.387 -12.839,-1.531 z" style="fill:#6c6c6c;fill-opacity:1;fill-rule:nonzero;stroke:none" id="path788"/><path d="m 25.598,176.949 c -2.618,-5.851 -7.684,-11.015 -10.801,-16.711 -1.418,-2.59 -2.402,-6.715 -4.68,-8.664 -4.043,-3.453 -10.367,2.028 -9.164,6.551 2.004,7.563 9.07,21.676 15.813,25.977 4.101,2.617 10.902,-2.54 8.836,-7.153 M 2.371,154.703 c 1.746,-0.648 4.188,-2.133 5.988,-0.941 4.618,3.054 8.219,14.386 11.575,19.136 1.14,1.61 3.464,3.86 3.257,6 -0.894,9.168 -9.976,-2.703 -11.351,-4.855 -1.555,-2.426 -3.07,-4.887 -4.43,-7.43 -2.043,-3.832 -3.949,-7.691 -5.039,-11.91 z" style="fill:#6c6c6c;fill-opacity:1;fill-rule:nonzero;stroke:none" id="path790"/><path d="m 10.965,79.23 c 3.25,-5.527 4.523,-12.644 7.359,-18.488 1.289,-2.656 4.082,-5.851 4.348,-8.836 0.473,-5.293 -7.656,-7.273 -10.649,-3.672 -5,6.016 -12.41,19.954 -12.007,27.942 0.242,4.859 8.386,7.414 10.949,3.054 m 4.668,-31.824 c 1.543,1.051 4.168,2.18 4.238,4.34 0.188,5.531 -6.961,15.031 -8.887,20.52 -0.652,1.859 -1.14,5.058 -3.004,6.129 -7.988,4.585 -3.578,-9.696 -2.621,-12.063 1.075,-2.676 2.203,-5.336 3.489,-7.914 1.937,-3.887 3.98,-7.68 6.785,-11.012 z" style="fill:#6c6c6c;fill-opacity:1;fill-rule:nonzero;stroke:none" id="path792"/><text xml:space="preserve" transform="translate(90.431881,43.95738)" style="font-variant:normal;font-weight:normal;font-size:21.1873px;font-family:'DejaVu Sans';-inkscape-font-specification:DejaVuSans;writing-mode:lr-tb;fill:#000000;fill-opacity:1;fill-rule:nonzero;stroke:none" id="text796"><tspan x="0 13.475125" y="0" sodipodi:role="line" id="tspan794">12</tspan></text><text xml:space="preserve" transform="rotate(0.54405201,-5529.3406,5501.889)" style="font-variant:normal;font-weight:normal;font-size:21.1873px;font-family:'DejaVu Sans';-inkscape-font-specification:DejaVuSans;writing-mode:lr-tb;fill:#000000;fill-opacity:1;fill-rule:nonzero;stroke:none" id="text800"><tspan x="0 13.475125" y="0" sodipodi:role="line" id="tspan798">11</tspan></text><text xml:space="preserve" transform="rotate(0.3806477,-12428.632,3692.5645)" style="font-variant:normal;font-weight:normal;font-size:21.1873px;font-family:'DejaVu Sans';-inkscape-font-specification:DejaVuSans;writing-mode:lr-tb;fill:#000000;fill-opacity:1;fill-rule:nonzero;stroke:none" id="text804"><tspan x="0 13.475125" y="0" sodipodi:role="line" id="tspan802">10</tspan></text><text xml:space="preserve" transform="rotate(-0.05566052,123919.79,-23181.06)" style="font-variant:normal;font-weight:normal;font-size:21.1873px;font-family:'DejaVu Sans';-inkscape-font-specification:DejaVuSans;writing-mode:lr-tb;fill:#000000;fill-opacity:1;fill-rule:nonzero;stroke:none" id="text808"><tspan x="0" y="0" id="tspan806">9</tspan></text><text xml:space="preserve" transform="rotate(-0.33203245,27313.47,-5633.7655)" style="font-variant:normal;font-weight:normal;font-size:21.1873px;font-family:'DejaVu Sans';-inkscape-font-specification:DejaVuSans;writing-mode:lr-tb;fill:#000000;fill-opacity:1;fill-rule:nonzero;stroke:none" id="text812"><tspan x="0" y="0" id="tspan810">8</tspan></text><text xml:space="preserve" transform="rotate(1.7956756,-6043.177,2013.6411)" style="font-variant:normal;font-weight:normal;font-size:21.1873px;font-family:'DejaVu Sans';-inkscape-font-specification:DejaVuSans;writing-mode:lr-tb;fill:#000000;fill-opacity:1;fill-rule:nonzero;stroke:none" id="text816"><tspan x="0" y="0" id="tspan814">7</tspan></text><text xml:space="preserve" transform="rotate(-1.8601427,6281.4141,-2903.9241)" style="font-variant:normal;font-weight:normal;font-size:21.1873px;font-family:'DejaVu Sans';-inkscape-font-specification:DejaVuSans;writing-mode:lr-tb;fill:#000000;fill-opacity:1;fill-rule:nonzero;stroke:none" id="text820"><tspan x="0" y="0" id="tspan818">6</tspan></text><text xml:space="preserve" transform="rotate(-1.6235356,6792.2236,-4737.5373)" style="font-variant:normal;font-weight:normal;font-size:21.1873px;font-family:'DejaVu Sans';-inkscape-font-specification:DejaVuSans;writing-mode:lr-tb;fill:#000000;fill-opacity:1;fill-rule:nonzero;stroke:none" id="text824"><tspan x="0" y="0" id="tspan822">5</tspan></text><text xml:space="preserve" transform="rotate(3.0528721,-2963.481,3200.4621)" style="font-variant:normal;font-weight:normal;font-size:21.1873px;font-family:'DejaVu Sans';-inkscape-font-specification:DejaVuSans;writing-mode:lr-tb;fill:#000000;fill-opacity:1;fill-rule:nonzero;stroke:none" id="text828"><tspan x="0" y="0" id="tspan826">4</tspan></text><text xml:space="preserve" transform="rotate(-0.43079389,16493.065,-23666.026)" style="font-variant:normal;font-weight:normal;font-size:21.1873px;font-family:'DejaVu Sans';-inkscape-font-specification:DejaVuSans;writing-mode:lr-tb;fill:#000000;fill-opacity:1;fill-rule:nonzero;stroke:none" id="text832"><tspan x="0" y="0" id="tspan830">3</tspan></text><text xml:space="preserve" transform="rotate(-1.4740387,3325.137,-6465.0916)" style="font-variant:normal;font-weight:normal;font-size:21.1873px;font-family:'DejaVu Sans';-inkscape-font-specification:DejaVuSans;writing-mode:lr-tb;fill:#000000;fill-opacity:1;fill-rule:nonzero;stroke:none" id="text836"><tspan x="0" y="0" id="tspan834">2</tspan></text><text xml:space="preserve" transform="rotate(2.4812764,-1212.3551,3147.3054)" style="font-variant:normal;font-weight:normal;font-size:21.1873px;font-family:'DejaVu Sans';-inkscape-font-specification:DejaVuSans;writing-mode:lr-tb;fill:#000000;fill-opacity:1;fill-rule:nonzero;stroke:none" id="text840"><tspan x="0" y="0" id="tspan838">1</tspan></text></g></svg>